<?xml version="1.0" standalone="no"?>
<!DOCTYPE svg PUBLIC "-//W3C//DTD SVG 20010904//EN"
 "http://www.w3.org/TR/2001/REC-SVG-20010904/DTD/svg10.dtd">
<svg version="1.0" xmlns="http://www.w3.org/2000/svg"
 width="200.000000pt" height="100.000000pt" viewBox="0 0 200.000000 100.000000"
 preserveAspectRatio="xMidYMid meet">

<g transform="translate(0.000000,100.000000) scale(0.100000,-0.100000)"
fill="#000000" stroke="none">
<path d="M295 805 c-50 -36 -125 -91 -167 -121 -43 -30 -78 -56 -78 -58 0 -1
14 -3 30 -4 23 -2 47 9 95 45 35 27 98 73 139 103 56 40 76 61 76 78 0 12 -1
22 -2 22 -2 0 -43 -30 -93 -65z"/>
<path d="M190 445 c0 -168 1 -175 20 -175 19 0 20 7 20 175 0 168 -1 175 -20
175 -19 0 -20 -7 -20 -175z"/>
<path d="M367 501 c-29 -15 -37 -16 -37 -5 0 8 -7 14 -15 14 -12 0 -15 -20
-15 -120 0 -100 3 -120 15 -120 12 0 15 17 15 95 l0 94 30 16 c70 36 90 12 90
-111 0 -87 1 -94 20 -94 18 0 20 7 20 88 0 110 -6 129 -41 147 -36 19 -37 19
-82 -4z"/>
</g>
</svg>
