<?xml version="1.0" encoding="UTF-8"?> <svg xmlns="http://www.w3.org/2000/svg" width="22" height="23" viewBox="0 0 22 23" fill="none"> <path d="M13.8329 16.8495C13.8512 16.8503 13.869 16.8507 13.8864 16.8507L13.8329 16.8495Z" fill="white"></path> <path d="M8.1801 6.65703C8.14387 6.56283 8.1174 6.49909 8.09274 6.45178C8.06885 6.40596 8.05395 6.39023 8.04801 6.38491C8.04649 6.38323 8.02196 6.35603 7.85072 6.35603C7.7363 6.35603 7.62895 6.34288 7.54222 6.33226L7.54041 6.33204C7.44753 6.32067 7.37929 6.3125 7.31389 6.3125C7.10158 6.3125 6.93951 6.38736 6.76426 6.55088C6.12025 7.15476 5.813 7.76266 5.78577 8.62873V8.74453C5.77262 9.65209 6.22348 10.5897 6.76414 11.3865C8.0061 13.2205 9.25868 14.7711 11.2539 15.678L11.2563 15.6791C11.5628 15.8217 12.0693 16.0427 12.5825 16.2274C13.1096 16.4171 13.5971 16.5507 13.8864 16.5507C14.2473 16.5507 14.747 16.4338 15.1964 16.2176C15.6523 15.9982 15.9922 15.7079 16.1181 15.4041C16.2429 15.0846 16.3431 14.7202 16.3431 14.4132C16.3431 14.3908 16.343 14.3724 16.3421 14.3554C16.333 14.349 16.3227 14.3418 16.311 14.334C16.2438 14.2887 16.1483 14.2299 16.0307 14.1612C15.7964 14.0244 15.4882 13.8563 15.1735 13.6927C14.8589 13.5291 14.5417 13.3719 14.2896 13.2563C14.1631 13.1983 14.0565 13.1523 13.9764 13.1215C13.9504 13.1115 13.9289 13.1037 13.9114 13.0978C13.8792 13.1199 13.835 13.1582 13.7781 13.2168C13.6696 13.3288 13.5492 13.4786 13.4148 13.646L13.3875 13.6799C13.2482 13.8531 13.0937 14.0435 12.9435 14.1903C12.868 14.264 12.7847 14.3356 12.6964 14.3902C12.6107 14.4432 12.4958 14.4955 12.363 14.4955C12.173 14.4955 12.0189 14.4246 11.9025 14.3587C11.0812 13.9477 10.3425 13.5118 9.64606 12.8458C9.07759 12.3071 8.44745 11.5009 8.10753 10.7812C8.05443 10.6898 8.0005 10.5669 8.0005 10.4232C8.0005 10.31 8.04158 10.2121 8.08029 10.1413C8.12056 10.0676 8.1729 9.9972 8.22529 9.93355C8.30322 9.83887 8.40227 9.73473 8.49657 9.63558C8.52574 9.60492 8.55485 9.57432 8.58234 9.54503C8.70647 9.41281 8.81649 9.28833 8.89533 9.16969C8.96743 9.0612 8.99525 8.98408 9.00061 8.93269C8.99684 8.91762 8.99084 8.89596 8.9822 8.86708C8.96331 8.80391 8.93536 8.71795 8.9003 8.61458C8.83042 8.40851 8.73565 8.14301 8.63709 7.87265C8.43918 7.32975 8.23079 6.78036 8.1827 6.66356L8.1801 6.65703Z" fill="white"></path> <path fill-rule="evenodd" clip-rule="evenodd" d="M5.69164 20.6169L5.80517 20.6797C7.38513 21.5543 9.16317 22.006 10.9556 22.006C16.8257 22.006 21.5954 17.2363 21.5954 11.3663C21.5954 5.49627 16.8257 0.726562 10.9556 0.726562C5.08561 0.726562 0.315902 5.49627 0.315902 11.3663C0.315902 13.3003 0.838267 15.205 1.83934 16.8546L1.9116 16.9737L0.0830078 22.4192L5.69164 20.6169ZM10.9556 20.7779C9.17368 20.7779 7.40816 20.2519 5.90616 19.2978L1.96416 20.552L3.25154 16.7551C2.14091 15.1768 1.54403 13.293 1.54403 11.3663C1.54403 6.18052 5.76986 1.95469 10.9556 1.95469C16.1414 1.95469 20.3672 6.18052 20.3672 11.3663C20.3672 16.5521 16.1414 20.7779 10.9556 20.7779Z" fill="white"></path> </svg> 